<?xml version="1.0" encoding="UTF-8"?>
<svg version="1.1" xmlns="http://www.w3.org/2000/svg" width="512" height="512">
<path d="M0 0 C0.99902596 0.44759674 0.99902596 0.44759674 2.01823425 0.90423584 C3.44467138 1.54469847 4.86896095 2.18996242 6.29122925 2.83963013 C9.34614476 4.2347511 12.41175001 5.60565334 15.47666931 6.97862244 C17.03798753 7.67843944 18.59874795 8.37950224 20.15895081 9.08180237 C26.64178842 11.99895223 33.1611934 14.82332047 39.703125 17.60546875 C41.98848325 18.58025571 44.27362577 19.55554855 46.55859375 20.53125 C47.17483612 20.79434464 47.79107849 21.05743927 48.42599487 21.32850647 C57.38138389 25.15569955 66.3185276 29.02536016 75.25924683 32.88665771 C93.539525 40.78124352 111.83154725 48.64762348 130.13790894 56.48153687 C152.42838608 66.02039366 174.69012383 75.62307337 196.92333984 85.29467773 C209.85334346 90.91854897 222.79867797 96.50477054 235.765625 102.04296875 C235.765625 102.70296875 235.765625 103.36296875 235.765625 104.04296875 C222.49479167 109.73046875 209.22395833 115.41796875 195.953125 121.10546875 C195.2962117 121.38700302 194.6392984 121.66853729 193.96247864 121.95860291 C184.48284912 126.02130127 175.0032196 130.08399963 165.52359009 134.146698 C164.88158661 134.42184235 164.23958313 134.69698669 163.578125 134.98046875 C150.30729167 140.66796875 137.03645833 146.35546875 123.765625 152.04296875 C123.435625 170.52296875 123.105625 189.00296875 122.765625 208.04296875 C152.465625 208.04296875 182.165625 208.04296875 212.765625 208.04296875 C212.765625 307.04296875 212.765625 406.04296875 212.765625 508.04296875 C63.935625 508.04296875 -84.894375 508.04296875 -238.234375 508.04296875 C-238.234375 448.64296875 -238.234375 389.24296875 -238.234375 328.04296875 C-248.134375 328.04296875 -258.034375 328.04296875 -268.234375 328.04296875 C-268.3251278 317.57602921 -268.39835008 307.10935553 -268.44162369 296.64210987 C-268.46240398 291.78054371 -268.49054466 286.91926317 -268.53613281 282.05786133 C-268.57993447 277.35697858 -268.60358378 272.65636871 -268.61388397 267.95529747 C-268.62121427 266.17132974 -268.63552671 264.38737514 -268.65729523 262.60352516 C-268.84397313 246.65626992 -266.76489755 233.69592847 -255.859375 221.35546875 C-250.57293313 216.69836519 -245.57509231 213.21332741 -239.234375 210.04296875 C-238.904375 178.03296875 -238.574375 146.02296875 -238.234375 113.04296875 C-241.204375 112.05296875 -244.174375 111.06296875 -247.234375 110.04296875 C-249.76785817 109.01099493 -252.29007682 107.95067184 -254.796875 106.85546875 C-255.42400391 106.58283203 -256.05113281 106.31019531 -256.69726562 106.02929688 C-258.2111229 105.37059562 -259.7229779 104.7072955 -261.234375 104.04296875 C-261.234375 103.38296875 -261.234375 102.72296875 -261.234375 102.04296875 C-234.11012708 90.304571 -206.97406522 78.5936514 -179.83496094 66.88964844 C-170.19227488 62.73108242 -160.55003791 58.57147535 -150.90777588 54.41192627 C-145.59999482 52.12222917 -140.29218334 49.8326026 -134.984375 47.54296875 C-132.85937485 46.62630242 -130.73437485 45.70963575 -128.609375 44.79296875 C-115.85937501 39.29296876 -115.85937501 39.29296876 -112.6725769 37.91827393 C-110.5452349 37.00059539 -108.41789523 36.08291146 -106.29055786 35.16522217 C-101.01390944 32.88899319 -95.73722208 30.61285455 -90.46044922 28.33691406 C-80.47021945 24.02788245 -70.48041705 19.71786685 -60.49188232 15.40490723 C-55.75571878 13.35993601 -51.01934725 11.31544678 -46.28295898 9.27099609 C-44.01771788 8.29304775 -41.75257954 7.31486132 -39.48754883 6.33642578 C-36.3539355 4.98280201 -33.21997418 3.629987 -30.0859375 2.27734375 C-29.1582254 1.8763446 -28.23051331 1.47534546 -27.27468872 1.06219482 C-25.61222008 0.34502854 -23.94739562 -0.36671681 -22.27960205 -1.07141113 C-20.70136722 -1.75481521 -19.15237815 -2.50600781 -17.61865234 -3.28417969 C-11.46064267 -5.02199196 -5.55842648 -2.58073875 0 0 Z M-207.234375 127.04296875 C-207.234375 153.77296875 -207.234375 180.50296875 -207.234375 208.04296875 C-187.764375 208.04296875 -168.294375 208.04296875 -148.234375 208.04296875 C-148.234375 189.56296875 -148.234375 171.08296875 -148.234375 152.04296875 C-155.88901924 148.17483856 -155.88901924 148.17483856 -163.65234375 144.6394043 C-164.5861084 144.23936691 -165.51987305 143.83932953 -166.48193359 143.4271698 C-167.45211426 143.01550064 -168.42229492 142.60383148 -169.421875 142.1796875 C-170.95835693 141.52441826 -170.95835693 141.52441826 -172.52587891 140.85591125 C-174.66974543 139.94266202 -176.81428562 139.0309927 -178.95947266 138.12084961 C-182.25509863 136.7216704 -185.54756336 135.31523369 -188.83984375 133.90820312 C-190.92950246 133.01909622 -193.01933979 132.13040899 -195.109375 131.2421875 C-196.09574951 130.82039719 -197.08212402 130.39860687 -198.09838867 129.96403503 C-199.00693604 129.57975845 -199.9154834 129.19548187 -200.8515625 128.79956055 C-201.65190918 128.45934372 -202.45225586 128.11912689 -203.27685547 127.76860046 C-205.19897812 126.92710962 -205.19897812 126.92710962 -207.234375 127.04296875 Z " fill="#F2F4F8" transform="translate(272.234375,3.95703125)"/>
<path d="M0 0 C0.99902596 0.44759674 0.99902596 0.44759674 2.01823425 0.90423584 C3.44467138 1.54469847 4.86896095 2.18996242 6.29122925 2.83963013 C9.34614476 4.2347511 12.41175001 5.60565334 15.47666931 6.97862244 C17.03798753 7.67843944 18.59874795 8.37950224 20.15895081 9.08180237 C26.64178842 11.99895223 33.1611934 14.82332047 39.703125 17.60546875 C41.98848325 18.58025571 44.27362577 19.55554855 46.55859375 20.53125 C47.17483612 20.79434464 47.79107849 21.05743927 48.42599487 21.32850647 C57.38138389 25.15569955 66.3185276 29.02536016 75.25924683 32.88665771 C93.539525 40.78124352 111.83154725 48.64762348 130.13790894 56.48153687 C152.42838608 66.02039366 174.69012383 75.62307337 196.92333984 85.29467773 C209.85334346 90.91854897 222.79867797 96.50477054 235.765625 102.04296875 C235.765625 102.70296875 235.765625 103.36296875 235.765625 104.04296875 C222.49479167 109.73046875 209.22395833 115.41796875 195.953125 121.10546875 C195.2962117 121.38700302 194.6392984 121.66853729 193.96247864 121.95860291 C184.48284912 126.02130127 175.0032196 130.08399963 165.52359009 134.146698 C164.88158661 134.42184235 164.23958313 134.69698669 163.578125 134.98046875 C150.30729167 140.66796875 137.03645833 146.35546875 123.765625 152.04296875 C123.435625 183.39296875 123.105625 214.74296875 122.765625 247.04296875 C76.00353968 267.57266474 76.00353968 267.57266474 57.30282593 275.49008179 C51.63441852 277.89017089 45.96972459 280.29900037 40.3046875 282.70703125 C39.21175888 283.17141098 38.11883026 283.63579071 36.99278259 284.11424255 C27.96482674 287.95244801 18.9517958 291.82412733 9.953125 295.73046875 C8.80561768 296.22844971 7.65811035 296.72643066 6.47583008 297.23950195 C5.43064209 297.69413818 4.3854541 298.14877441 3.30859375 298.6171875 C1.87652588 299.22892822 1.87652588 299.22892822 0.41552734 299.85302734 C-2.22897742 301.00042994 -2.22897742 301.00042994 -4.66162109 302.36181641 C-10.1051682 305.23860178 -10.1051682 305.23860178 -13.22706604 304.69773865 C-13.91082809 304.44484573 -14.59459015 304.19195282 -15.29907227 303.93139648 C-16.08748001 303.64181564 -16.87588776 303.3522348 -17.68818665 303.05387878 C-22.32541329 301.21276639 -26.91989897 299.2874381 -31.5 297.30859375 C-33.13051048 296.60914642 -33.13051048 296.60914642 -34.79396057 295.89556885 C-38.35900354 294.36499667 -41.92171539 292.82907946 -45.484375 291.29296875 C-47.34620475 290.49221679 -49.20828293 289.69204466 -51.07038975 288.89193726 C-71.25612046 280.21796532 -91.41458664 271.4806515 -111.55761719 262.70800781 C-112.60400864 262.25270691 -113.65040009 261.79740601 -114.72850037 261.32830811 C-116.62985755 260.50087975 -118.53084326 259.6725967 -120.43128967 258.84307861 C-129.66538986 254.82559503 -138.95073291 250.95187068 -148.234375 247.04296875 C-148.564375 215.69296875 -148.894375 184.34296875 -149.234375 152.04296875 C-167.12179975 144.41072314 -167.12179975 144.41072314 -185.01269531 136.78662109 C-187.27942136 135.81767397 -189.54603053 134.84845339 -191.8125 133.87890625 C-192.96024902 133.39139893 -194.10799805 132.9038916 -195.29052734 132.40161133 C-201.84402977 129.59356527 -208.25835499 126.61004325 -214.60554504 123.36125183 C-218.55198879 121.3822231 -222.59291441 119.66490663 -226.671875 117.98046875 C-227.485354 117.64104248 -228.29883301 117.30161621 -229.13696289 116.9519043 C-234.7916108 114.60506069 -240.4837869 112.37127582 -246.2109375 110.20703125 C-251.26387981 108.26158318 -256.2487831 106.15398514 -261.234375 104.04296875 C-261.234375 103.38296875 -261.234375 102.72296875 -261.234375 102.04296875 C-234.11012708 90.304571 -206.97406522 78.5936514 -179.83496094 66.88964844 C-170.19227488 62.73108242 -160.55003791 58.57147535 -150.90777588 54.41192627 C-145.59999482 52.12222917 -140.29218334 49.8326026 -134.984375 47.54296875 C-132.85937485 46.62630242 -130.73437485 45.70963575 -128.609375 44.79296875 C-115.85937497 39.29296874 -115.85937497 39.29296874 -112.6725769 37.91827393 C-110.5452349 37.00059539 -108.41789523 36.08291146 -106.29055786 35.16522217 C-101.01390944 32.88899319 -95.73722208 30.61285455 -90.46044922 28.33691406 C-80.47021945 24.02788245 -70.48041705 19.71786685 -60.49188232 15.40490723 C-55.75571878 13.35993601 -51.01934725 11.31544678 -46.28295898 9.27099609 C-44.01771788 8.29304775 -41.75257954 7.31486132 -39.48754883 6.33642578 C-36.3539355 4.98280201 -33.21997418 3.629987 -30.0859375 2.27734375 C-29.1582254 1.8763446 -28.23051331 1.47534546 -27.27468872 1.06219482 C-25.61222008 0.34502854 -23.94739562 -0.36671681 -22.27960205 -1.07141113 C-20.70136722 -1.75481521 -19.15237815 -2.50600781 -17.61865234 -3.28417969 C-11.46064267 -5.02199196 -5.55842648 -2.58073875 0 0 Z " fill="#2C1E33" transform="translate(272.234375,3.95703125)"/>
<path d="M0 0 C29.7 0 59.4 0 90 0 C90 99 90 198 90 300 C15.75 300 -58.5 300 -135 300 C-135 270.3 -135 240.6 -135 210 C-114.395625 211.0828125 -114.395625 211.0828125 -93.375 212.1875 C-41.42820495 213.21985966 -3.19953527 195.56422485 40.33831215 168.71776104 C44.79014463 166 44.79014463 166 47 166 C47 165.34 47 164.68 47 164 C45.7228009 163.62797203 45.7228009 163.62797203 44.4197998 163.24842834 C40.73485054 161.90320483 37.58689766 160.09566144 34.28320312 158.02514648 C-7.42404442 132.51793326 -43.54192753 116.85199556 -93.125 117.9375 C-94.17924164 117.96050549 -95.23348328 117.98351097 -96.31967163 118.00721359 C-109.24199174 118.32207337 -122.11221474 119.01712066 -135 120 C-135 112.41 -135 104.82 -135 97 C-123.25484272 90.87689197 -111.17963891 85.70197807 -98.97918701 80.55630493 C-92.94200039 78.00995368 -86.91098035 75.44905765 -80.87890625 72.890625 C-79.68285767 72.3838472 -78.48680908 71.8770694 -77.2545166 71.35493469 C-67.10789926 67.05350528 -56.98544873 62.6981473 -46.875 58.3125 C-45.40384359 57.6751308 -43.93265272 57.03784115 -42.46142578 56.40063477 C-39.66700212 55.19013095 -36.87272442 53.9792914 -34.07861328 52.76806641 C-33.07281219 52.33207123 -33.07281219 52.33207123 -32.04669189 51.88726807 C-30.66136699 51.28671136 -29.27607329 50.68608265 -27.89080811 50.08538818 C-23.82227858 48.32153557 -19.75229713 46.56112039 -15.67999268 44.80599976 C-13.86675373 44.02341562 -12.05517591 43.23698618 -10.24365234 42.45043945 C-9.17969238 41.99241943 -8.11573242 41.53439941 -7.01953125 41.0625 C-6.09245361 40.66160156 -5.16537598 40.26070312 -4.21020508 39.84765625 C-2 39 -2 39 0 39 C0 26.13 0 13.26 0 0 Z " fill="#E0E5EF" transform="translate(395,212)"/>
<path d="M0 0 C0.00423194 1.00925285 0.00846388 2.01850571 0.01282406 3.05834198 C0.11818731 28.15267218 0.22711393 53.24698524 0.33933926 78.34128571 C0.3935463 90.47898253 0.44676607 102.61668188 0.49731445 114.75439453 C0.55615013 128.84669483 0.61786216 142.9389801 0.68359375 157.03125 C0.68900665 158.19172726 0.69441955 159.35220451 0.69999647 160.54784775 C0.93321483 210.0340916 1.41427842 259.51678193 2 309 C-2.84370314 307.42413586 -7.63790097 305.83444106 -12.32128906 303.82128906 C-13.27265244 303.41440857 -14.22401581 303.00752808 -15.20420837 302.58831787 C-16.21447586 302.15182922 -17.22474335 301.71534058 -18.265625 301.265625 C-19.89613548 300.56617767 -19.89613548 300.56617767 -21.55958557 299.8526001 C-25.12462854 298.32202792 -28.68734039 296.78611071 -32.25 295.25 C-34.11182975 294.44924804 -35.97390793 293.64907591 -37.83601475 292.84896851 C-58.02174546 284.17499657 -78.18021164 275.43768275 -98.32324219 266.66503906 C-99.36963364 266.20973816 -100.41602509 265.75443726 -101.49412537 265.28533936 C-103.39548255 264.457911 -105.29646826 263.62962795 -107.19691467 262.80010986 C-116.43101486 258.78262628 -125.71635791 254.90890193 -135 251 C-135.33 219.65 -135.66 188.3 -136 156 C-153.88742475 148.36775439 -153.88742475 148.36775439 -171.77832031 140.74365234 C-174.04504636 139.77470522 -176.31165553 138.80548464 -178.578125 137.8359375 C-179.72587402 137.34843018 -180.87362305 136.86092285 -182.05615234 136.35864258 C-188.60965477 133.55059652 -195.02397999 130.5670745 -201.37117004 127.31828308 C-205.31761379 125.33925435 -209.35853941 123.62193788 -213.4375 121.9375 C-214.250979 121.59807373 -215.06445801 121.25864746 -215.90258789 120.90893555 C-221.5572358 118.56209194 -227.2494119 116.32830707 -232.9765625 114.1640625 C-238.02950481 112.21861443 -243.0144081 110.11101639 -248 108 C-248 107.34 -248 106.68 -248 106 C-220.87575208 94.26160225 -193.73969022 82.55068265 -166.60058594 70.84667969 C-156.95789988 66.68811367 -147.31566291 62.5285066 -137.67340088 58.36895752 C-132.36561982 56.07926042 -127.05780834 53.78963385 -121.75 51.5 C-119.62499985 50.58333367 -117.49999985 49.666667 -115.375 48.75 C-102.62499997 43.24999999 -102.62499997 43.24999999 -99.4382019 41.87530518 C-97.3108599 40.95762664 -95.18352023 40.03994271 -93.05618286 39.12225342 C-87.77953444 36.84602444 -82.50284708 34.5698858 -77.22607422 32.29394531 C-67.23584445 27.9849137 -57.24604205 23.6748981 -47.25750732 19.36193848 C-42.52134378 17.31696726 -37.78497225 15.27247803 -33.04858398 13.22802734 C-30.78334288 12.250079 -28.51820454 11.27189257 -26.25317383 10.29345703 C-23.1195605 8.93983326 -19.98559918 7.58701825 -16.8515625 6.234375 C-15.9238504 5.83337585 -14.99613831 5.43237671 -14.04031372 5.01922607 C-2.4052075 0 -2.4052075 0 0 0 Z " fill="#45344D" transform="translate(259,0)"/>
<path d="M0 0 C28.46901918 -1.00818963 56.92278084 -1.81196223 85.40535736 -2.27973557 C88.08112672 -2.32458233 90.75687764 -2.37040143 93.43261719 -2.41699219 C94.09737527 -2.42853385 94.76213335 -2.44007551 95.44703561 -2.45196691 C105.33443876 -2.62797737 115.21301469 -2.93599697 125.09472656 -3.31933594 C200.05297195 -6.17064353 254.53719434 2.56278219 318 44 C318 44.66 318 45.32 318 46 C253.2065332 88.30605579 197.60531738 96.13222253 121.2237711 93.16917086 C111.96100785 92.81651578 102.70026096 92.57789882 93.43261719 92.41699219 C92.43678321 92.39965244 92.43678321 92.39965244 91.42083138 92.38196239 C88.08633513 92.3244913 84.75181183 92.2690023 81.41726971 92.21423864 C54.26491353 91.76264459 27.1394264 90.96110401 0 90 C0 60.3 0 30.6 0 0 Z " fill="#4D87FE" transform="translate(124,332)"/>
<path d="M0 0 C3.68843626 0.73768725 6.28448632 1.40763699 9.63598633 2.84399414 C10.53806824 3.22782761 11.44015015 3.61166107 12.36956787 4.00712585 C13.34718079 4.42887589 14.3247937 4.85062592 15.33203125 5.28515625 C16.371922 5.72926346 17.41181274 6.17337067 18.48321533 6.63093567 C21.92827857 8.10357068 25.37037577 9.58300991 28.8125 11.0625 C31.22109402 12.09367938 33.62986969 13.12443455 36.03881836 14.15478516 C41.74913708 16.59804193 47.45734081 19.04619994 53.1648016 21.49612427 C59.57666203 24.24813847 65.99082198 26.99477189 72.40520668 29.74089622 C83.42594959 34.45923641 94.44492269 39.18169418 105.4619751 43.90864563 C115.64000828 48.27549087 125.82021234 52.63723386 136 57 C136.33 88.68 136.66 120.36 137 153 C126.87435985 149.62478662 126.87435985 149.62478662 122.67871094 147.82128906 C121.25166588 147.21096832 121.25166588 147.21096832 119.79579163 146.58831787 C118.78552414 146.15182922 117.77525665 145.71534058 116.734375 145.265625 C115.10386452 144.56617767 115.10386452 144.56617767 113.44041443 143.8526001 C109.87537146 142.32202792 106.31265961 140.78611071 102.75 139.25 C100.88817025 138.44924804 99.02609207 137.64907591 97.16398525 136.84896851 C76.97825454 128.17499657 56.81978836 119.43768275 36.67675781 110.66503906 C35.63036636 110.20973816 34.58397491 109.75443726 33.50587463 109.28533936 C31.60451745 108.457911 29.70353174 107.62962795 27.80308533 106.80010986 C18.56898514 102.78262628 9.28364209 98.90890193 0 95 C0 63.65 0 32.3 0 0 Z " fill="#5F5166" transform="translate(124,156)"/>
<path d="M0 0 C0 31.35 0 62.7 0 95 C-46.76301561 115.53010441 -46.76301561 115.53010441 -65.46334839 123.4473877 C-71.12891821 125.8462014 -76.79088322 128.25349988 -82.453125 130.66015625 C-83.54564072 131.12432953 -84.63815643 131.58850281 -85.76377869 132.06674194 C-97.08418176 136.8796463 -108.37394124 141.7614972 -119.65234375 146.671875 C-120.58933105 147.07857422 -121.52631836 147.48527344 -122.49169922 147.90429688 C-124.05979671 148.58929021 -125.62455215 149.2820468 -127.18408203 149.98632812 C-129.99904713 151.24521265 -131.87220589 152 -135 152 C-135 120.65 -135 89.3 -135 57 C-126.25417024 52.91861278 -117.57137817 48.87635754 -108.69140625 45.12890625 C-107.66503052 44.69301682 -106.63865479 44.25712738 -105.58117676 43.80802917 C-103.38240855 42.87450699 -101.18314845 41.94214265 -98.98342896 41.01086426 C-93.66592576 38.7595221 -88.35147884 36.5009917 -83.03689384 34.24277115 C-81.17678946 33.45248073 -79.31655498 32.6624971 -77.45631409 31.87252808 C-63.92965524 26.12679315 -50.42157724 20.33777935 -36.91517258 14.54462814 C-35.07020607 13.7533052 -33.22518993 12.9620981 -31.38015747 12.17092896 C-25.94602266 9.84066813 -20.51204031 7.5100527 -15.07836914 5.17871094 C-13.76100266 4.61597473 -13.76100266 4.61597473 -12.41702271 4.04187012 C-10.89605422 3.3862488 -9.37928082 2.72071948 -7.86886597 2.0411377 C-5.04070783 0.77593697 -3.14152997 0 0 0 Z " fill="#45354D" transform="translate(395,156)"/>
<path d="M0 0 C10.13639433 3.37879811 10.13639433 3.37879811 14.4375 5.2265625 C15.35144531 5.6184375 16.26539063 6.0103125 17.20703125 6.4140625 C18.12871094 6.81367187 19.05039062 7.21328125 20 7.625 C20.95261719 8.03234375 21.90523437 8.4396875 22.88671875 8.859375 C29.86624765 11.86624765 29.86624765 11.86624765 31 13 C31.09511266 15.64738089 31.12555635 18.26859001 31.11352539 20.91625977 C31.11367142 21.74545929 31.11381744 22.57465881 31.1139679 23.4289856 C31.11326851 26.18315198 31.10547493 28.93725161 31.09765625 31.69140625 C31.09579216 33.59569766 31.09436822 35.49998955 31.09336853 37.40428162 C31.08954263 42.42667963 31.07971173 47.44904892 31.06866455 52.47143555 C31.05845198 57.5922812 31.05387124 62.71313148 31.04882812 67.83398438 C31.03808953 77.88933557 31.02101224 87.9446654 31 98 C31.93263672 98.29567871 32.86527344 98.59135742 33.82617188 98.89599609 C45.8486312 103.07796233 52.65764167 112.80582191 58.01953125 123.703125 C60.08298203 128.53702563 60.13745694 133.05618153 60.11352539 138.25683594 C60.11364593 139.09985386 60.11376646 139.94287178 60.11389065 140.8114357 C60.11314525 143.53577579 60.10553398 146.26004717 60.09765625 148.984375 C60.09618568 150.66813118 60.09516568 152.35188781 60.09460449 154.03564453 C60.08936499 160.27377 60.07540377 166.51188568 60.0625 172.75 C60.041875 186.6925 60.02125 200.635 60 215 C30.3 215 0.6 215 -30 215 C-30.0825 201.738125 -30.165 188.47625 -30.25 174.8125 C-30.28641602 170.64987549 -30.32283203 166.48725098 -30.36035156 162.19848633 C-30.37841797 157.05212402 -30.37841797 157.05212402 -30.3817749 154.63066101 C-30.38785287 152.96618858 -30.40178501 151.30173195 -30.42230225 149.63737488 C-30.60912992 133.66088324 -28.55331939 120.67875615 -17.625 108.3125 C-12.33855813 103.65539644 -7.34071731 100.17035866 -1 97 C-0.67 64.99 -0.34 32.98 0 0 Z " fill="#FEBE40" transform="translate(34,117)"/>
<path d="M0 0 C21.32804005 -1.31054904 42.63816557 -2.24717801 64 -2.75 C64.7886282 -2.76910934 65.5772564 -2.78821869 66.38978243 -2.8079071 C112.43151849 -3.89348119 150.58671785 -1.19041359 191.6875 22 C192.62080139 22.52614395 193.55410278 23.0522879 194.51568604 23.59437561 C205.65704602 29.93211414 216.47235685 36.68938342 227 44 C227 44.33 227 44.66 227 45 C152.09 45 77.18 45 0 45 C0 30.15 0 15.3 0 0 Z " fill="#59ABFE" transform="translate(215,332)"/>
<path d="M0 0 C30.03 0 60.06 0 91 0 C91 29.7 91 59.4 91 90 C60.97 90 30.94 90 0 90 C0 60.3 0 30.6 0 0 Z " fill="#5F5268" transform="translate(124,332)"/>
<path d="M0 0 C29.37 0 58.74 0 89 0 C89 14.85 89 29.7 89 45 C59.63 45 30.26 45 0 45 C0 30.15 0 15.3 0 0 Z " fill="#45354D" transform="translate(125,377)"/>
<path d="M0 0 C10.13639433 3.37879811 10.13639433 3.37879811 14.4375 5.2265625 C15.35144531 5.6184375 16.26539062 6.0103125 17.20703125 6.4140625 C18.12871094 6.81367187 19.05039062 7.21328125 20 7.625 C20.95261719 8.03234375 21.90523437 8.4396875 22.88671875 8.859375 C29.86624765 11.86624765 29.86624765 11.86624765 31 13 C31.1003792 15.54524351 31.13617485 18.06337273 31.12939453 20.60913086 C31.13114685 21.40585709 31.13289917 22.20258331 31.13470459 23.02345276 C31.13912419 25.67060492 31.13618446 28.31769085 31.1328125 30.96484375 C31.13348558 32.79708367 31.13445563 34.6293235 31.13571167 36.46156311 C31.13718884 40.30763598 31.13503371 44.15368568 31.13037109 47.99975586 C31.1246778 52.9375668 31.12795015 57.87532335 31.13394356 62.81313229 C31.13755206 66.59884554 31.13640918 70.38454584 31.13381577 74.17025948 C31.13314709 75.99118621 31.13397285 77.8121141 31.13629532 79.63303947 C31.13882613 82.175883 31.13497497 84.71863772 31.12939453 87.26147461 C31.13141876 88.01947357 31.13344299 88.77747253 31.13552856 89.55844116 C31.11426344 94.77147313 31.11426344 94.77147313 30 97 C29.07380859 96.89171875 29.07380859 96.89171875 28.12890625 96.78125 C18.46509245 95.72220191 9.79300718 96.10972662 0 97 C0 64.99 0 32.98 0 0 Z " fill="#FE9E40" transform="translate(34,117)"/>
</svg>
